<svg width="24" height="24" viewBox="0 0 24 24" fill="none" xmlns="http://www.w3.org/2000/svg">
<path d="M10.995 4.68V8.56C10.995 8.88127 10.9315 9.19938 10.8083 9.49606C10.685 9.79275 10.5044 10.0622 10.2768 10.2889C10.0491 10.5156 9.77898 10.6951 9.48179 10.8171C9.1846 10.9392 8.86624 11.0013 8.54497 11H4.68497C4.36457 11.0019 4.04708 10.9392 3.75153 10.8155C3.45597 10.6917 3.18844 10.5096 2.96497 10.28C2.73854 10.0547 2.55916 9.78657 2.43728 9.49129C2.31539 9.19601 2.25342 8.87944 2.25497 8.56V4.69C2.25497 4.0446 2.51066 3.42549 2.96609 2.96819C3.42152 2.51088 4.03958 2.25265 4.68497 2.25H8.55497C8.87504 2.25031 9.19186 2.3141 9.4871 2.43769C9.78234 2.56128 10.0501 2.74221 10.275 2.97C10.5029 3.19264 10.684 3.45862 10.8077 3.75228C10.9313 4.04594 10.995 4.36137 10.995 4.68ZM21.745 4.69V8.56C21.7398 9.2038 21.4824 9.81991 21.0281 10.2761C20.5738 10.7323 19.9587 10.9922 19.315 11H15.435C14.7882 10.996 14.1681 10.7416 13.705 10.29C13.4787 10.0625 13.2995 9.79258 13.1777 9.49572C13.0558 9.19886 12.9937 8.88088 12.995 8.56V4.69C12.9936 4.36969 13.0566 4.05236 13.1803 3.75689C13.304 3.46141 13.4858 3.19382 13.715 2.97C13.9398 2.74221 14.2076 2.56128 14.5028 2.43769C14.7981 2.3141 15.1149 2.25031 15.435 2.25H19.305C19.9505 2.25523 20.5681 2.51398 21.0245 2.97044C21.481 3.4269 21.7397 4.04449 21.745 4.69ZM21.745 15.44V19.31C21.7398 19.9538 21.4824 20.5699 21.0281 21.0261C20.5738 21.4823 19.9587 21.7422 19.315 21.75H15.435C14.7841 21.7566 14.1562 21.5091 13.685 21.06C13.4578 20.8331 13.278 20.5634 13.1561 20.2664C13.0342 19.9693 12.9726 19.651 12.975 19.33V15.46C12.9737 15.1397 13.0367 14.8224 13.1604 14.5269C13.2841 14.2315 13.4659 13.9639 13.695 13.74C13.9198 13.5123 14.1876 13.3314 14.4829 13.2078C14.7781 13.0842 15.0949 13.0204 15.415 13.02H19.285C19.9305 13.0252 20.5481 13.284 21.0045 13.7404C21.461 14.1969 21.7197 14.8145 21.725 15.46L21.745 15.44ZM10.995 15.45V19.32C10.9871 19.9655 10.7258 20.582 10.2675 21.0366C9.80916 21.4912 9.19051 21.7474 8.54497 21.75H4.68497C4.36549 21.7513 4.04891 21.6894 3.75349 21.5677C3.45807 21.4461 3.18966 21.2671 2.96375 21.0412C2.73784 20.8153 2.5589 20.5469 2.43725 20.2515C2.3156 19.9561 2.25365 19.6395 2.25497 19.32V15.45C2.25755 14.8045 2.51376 14.1858 2.96836 13.7275C3.42295 13.2691 4.03948 13.0079 4.68497 13H8.55497C9.20339 13.0056 9.82405 13.2639 10.285 13.72C10.7411 14.1801 10.9963 14.8021 10.995 15.45Z" fill="white"/>
</svg>
