<svg width="24" height="24" viewBox="0 0 24 24" fill="none" xmlns="http://www.w3.org/2000/svg">
<path d="M15.6 10.8C15.6 11.7548 15.2207 12.6705 14.5456 13.3456C13.8705 14.0207 12.9548 14.4 12 14.4C11.0452 14.4 10.1296 14.0207 9.45442 13.3456C8.77929 12.6705 8.40001 11.7548 8.40001 10.8C8.40001 9.84522 8.77929 8.92955 9.45442 8.25441C10.1296 7.57928 11.0452 7.2 12 7.2C12.9548 7.2 13.8705 7.57928 14.5456 8.25441C15.2207 8.92955 15.6 9.84522 15.6 10.8ZM14.4 10.8C14.4 10.1635 14.1472 9.55303 13.6971 9.10294C13.247 8.65286 12.6365 8.4 12 8.4C11.3635 8.4 10.753 8.65286 10.303 9.10294C9.85287 9.55303 9.60001 10.1635 9.60001 10.8C9.60001 11.4365 9.85287 12.047 10.303 12.4971C10.753 12.9471 11.3635 13.2 12 13.2C12.6365 13.2 13.247 12.9471 13.6971 12.4971C14.1472 12.047 14.4 11.4365 14.4 10.8ZM17.94 16.746C19.5155 15.1697 20.4005 13.0323 20.4005 10.8036C20.4005 8.57494 19.5155 6.4375 17.94 4.8612C17.16 4.0811 16.2339 3.46228 15.2147 3.04009C14.1956 2.61789 13.1032 2.40059 12 2.40059C10.8968 2.40059 9.80446 2.61789 8.78527 3.04009C7.76608 3.46228 6.84003 4.0811 6.06001 4.8612C4.48452 6.4375 3.59949 8.57494 3.59949 10.8036C3.59949 13.0323 4.48452 15.1697 6.06001 16.746L7.88521 18.5448L10.3368 20.9268L10.4964 21.0684C11.4264 21.822 12.7884 21.774 13.6644 20.9268L16.5864 18.0828L17.94 16.746ZM6.90601 5.7072C7.5747 5.03777 8.36877 4.5067 9.24284 4.14437C10.1169 3.78203 11.0538 3.59553 12 3.59553C12.9462 3.59553 13.8831 3.78203 14.7572 4.14437C15.6312 4.5067 16.4253 5.03777 17.094 5.7072C18.4071 7.02203 19.1621 8.79298 19.2014 10.6508C19.2407 12.5086 18.5615 14.3099 17.3052 15.6792L17.094 15.9L15.5088 17.4648L12.8328 20.0676L12.72 20.1636C12.5122 20.3192 12.2595 20.4032 11.9998 20.403C11.7402 20.4028 11.4876 20.3184 11.28 20.1624L11.1684 20.0664L7.59241 16.5804L6.90601 15.9L6.69481 15.6804C5.43854 14.3111 4.75927 12.5098 4.79862 10.652C4.83796 8.79418 5.59289 7.02203 6.90601 5.7072Z" fill="white"/>
</svg>
